<svg width="96" height="97" viewBox="0 0 96 97" fill="none" xmlns="http://www.w3.org/2000/svg">
<g clip-path="url(#clip0_34_1733)">
<path fill-rule="evenodd" clip-rule="evenodd" d="M95.9814 -0.0643603L95.9813 -0.0642505C95.9676 0.00894904 95.9539 0.0823423 95.9504 0.155162C95.8891 1.60508 95.8292 3.05545 95.7693 4.50574C95.7291 5.47915 95.6888 6.45253 95.6482 7.4257C95.5803 9.04194 95.5124 10.6569 95.4407 12.2731C95.3857 13.4986 95.3294 14.7237 95.2731 15.9488L95.2726 15.9596C95.2346 16.7858 95.1966 17.612 95.159 18.4384C95.1181 19.3367 95.0787 20.2346 95.0393 21.1325L95.0389 21.1404L95.0386 21.1483L95.0382 21.1561L95.0379 21.1639C95.0122 21.7482 94.9865 22.3325 94.9605 22.917C94.8631 25.116 94.7645 27.3137 94.6659 29.5114C94.6326 30.2629 94.5996 31.0141 94.5667 31.7653L94.5667 31.766C94.5337 32.5174 94.5007 33.2689 94.4674 34.0207C94.3675 36.2696 94.2663 38.5198 94.1652 40.7687C94.1633 40.8105 94.1577 40.8529 94.1509 40.9037L94.1508 40.904L94.1507 40.9049C94.148 40.9254 94.145 40.9473 94.1421 40.9711L93.6617 41.0271C91.0118 41.3362 88.3694 41.6443 85.6895 41.9559C85.8907 37.3919 86.0912 32.8348 86.2916 28.2814C86.493 23.7043 86.6943 19.131 86.8959 14.5579C86.8792 14.5554 86.8626 14.5541 86.8447 14.5515C85.8043 20.9386 84.7633 27.3257 83.7205 33.7242L83.6814 33.9642L83.6351 34.2481L83.6181 34.3524L82.3148 42.3491C81.3078 42.4668 80.3024 42.5839 79.2927 42.7014L79.2813 42.7028L79.2255 42.7093C78.2581 42.8219 77.2866 42.935 76.3058 43.0497C75.9067 38.4765 75.5086 33.9107 75.1108 29.3485C74.7415 25.1128 74.3724 20.8802 74.0031 16.648C73.9864 16.648 73.9685 16.648 73.9519 16.6493L72.748 43.4646C70.6474 43.7096 68.5589 43.9526 66.4524 44.1976L64.2762 44.4507L64.8529 31.4794C65.2736 22.0208 65.6938 12.5715 66.114 3.10718C69.3235 2.73288 72.5195 2.36084 75.7309 1.98701L78.661 1.6459C78.9449 4.57288 79.1894 7.49481 79.4335 10.413L79.4336 10.4146C79.7114 13.7346 79.9887 17.0498 80.3233 20.362C80.4716 19.6509 80.5818 18.9326 80.6919 18.2141L80.692 18.2138C80.7217 18.0201 80.7514 17.8264 80.7818 17.6329C80.8546 17.1744 80.9271 16.716 80.9996 16.2576C81.0724 15.7965 81.1453 15.3354 81.2186 14.8742L81.2216 14.8549L81.2222 14.851L81.223 14.8463L81.2238 14.8409C81.3681 13.9325 81.5123 13.0241 81.6553 12.1169L82.0856 9.38901C82.2303 8.46947 82.3763 7.54992 82.5223 6.63166C82.5944 6.17326 82.6669 5.71485 82.7394 5.25644C82.8123 4.79531 82.8852 4.33417 82.9577 3.87303C83.0577 3.23863 83.1565 2.60485 83.2561 1.96533L83.2574 1.95746L83.3906 1.10288C83.4796 1.09113 83.5659 1.07922 83.6505 1.06755C83.8057 1.04614 83.9552 1.02551 84.1053 1.00811C84.8326 0.924086 85.5598 0.840463 86.2869 0.756845C87.3995 0.628891 88.5121 0.500949 89.6251 0.371601C90.4454 0.275753 91.2658 0.178663 92.0864 0.0815538L92.0883 0.0813288C92.9336 -0.0187145 93.7791 -0.118777 94.6249 -0.217521C94.9217 -0.252433 95.219 -0.281411 95.5164 -0.310406L95.5168 -0.310437C95.6775 -0.326105 95.8383 -0.341779 95.9991 -0.358398V-0.173978L96.0004 -0.172697C95.9949 -0.13684 95.9882 -0.100844 95.9814 -0.0648001L95.9814 -0.0646912L95.9814 -0.064581L95.9814 -0.0644698L95.9814 -0.0643603ZM29.0152 7.42953L29.02 7.42897C30.5596 7.24958 32.0988 7.07024 33.6427 6.8901C33.648 6.92072 33.6537 6.94989 33.6591 6.97804L33.6592 6.97847L33.6592 6.97876C33.6722 7.04569 33.684 7.10685 33.6876 7.16801C33.7554 8.30143 33.822 9.43613 33.8861 10.5708C33.9847 12.328 34.0833 14.0864 34.1768 15.8435C34.2472 17.1716 34.3151 18.5009 34.374 19.8303C34.4765 22.1099 34.5777 24.3909 34.666 26.6718C34.7138 27.8954 34.7498 29.1189 34.7857 30.3425C34.7969 30.7249 34.8081 31.1074 34.8197 31.4898C34.8368 32.0582 34.8519 32.6265 34.867 33.1949C34.8791 33.6498 34.8911 34.1047 34.9042 34.5596C34.9081 34.6813 34.9234 34.8017 34.9503 34.9208C35.1131 33.5168 35.2739 32.1126 35.4347 30.7085C35.8191 27.3516 36.2035 23.9947 36.6152 20.641C37.024 17.3084 37.4603 13.9795 37.8983 10.6378L37.8986 10.6362L37.8989 10.6332L37.8994 10.6295C38.0869 9.19929 38.2747 7.7667 38.4607 6.33043L64.5729 3.28877C64.5135 4.85365 64.443 6.4087 64.3723 7.96735L64.3722 7.9692C64.318 9.16396 64.2638 10.3608 64.2143 11.5659C62.8352 11.727 61.4603 11.8881 60.0767 12.0502L60.0713 12.0509L60.0571 12.0525L60.0554 12.0527L60.0515 12.0532L57.7494 12.3228C57.6341 14.9239 57.5188 17.5148 57.401 20.1479L58.8628 19.9785C60.3842 19.8021 61.8895 19.6276 63.3934 19.4538C63.4549 19.7112 63.1373 27.0368 63.0515 27.3237L62.4093 27.3971L62.4075 27.3973C61.6341 27.4856 60.8563 27.5744 60.0777 27.6656C59.477 27.736 58.8764 27.8077 58.2664 27.8806L58.2654 27.8807L58.2623 27.8811L58.2605 27.8813L58.2584 27.8815L58.2558 27.8818C57.8587 27.9293 57.4577 27.9772 57.0501 28.0255C56.9754 29.7014 56.9011 31.3753 56.8265 33.0552L56.8257 33.0725C56.7663 34.4101 56.7067 35.7514 56.6467 37.1005C59.0301 36.8239 61.3712 36.5524 63.752 36.277C63.6873 37.737 63.6226 39.1864 63.5579 40.6357C63.4996 41.9401 63.4414 43.2446 63.3832 44.5568L59.4018 45.0206C55.1385 45.5172 50.8773 46.0136 46.5893 46.5137C46.7073 43.7501 46.8304 40.9954 46.9534 38.2436L46.9535 38.2417L46.9536 38.2396L46.9537 38.2372L46.9538 38.2346L46.9539 38.2328L46.9544 38.2215C47.0235 36.6767 47.0925 35.1329 47.1605 33.5889L47.1717 33.3346C47.3575 29.1149 47.5434 24.894 47.7317 20.6743L47.747 20.3318C47.9341 16.1416 48.1211 11.9524 48.2619 7.75585C46.1488 20.8433 44.0356 33.9321 41.9173 47.0567C39.3728 47.353 36.8285 47.6496 34.2797 47.9467C31.9257 48.2212 29.5677 48.4961 27.2021 48.7715C26.5816 42.0542 25.962 35.3434 25.3424 28.6327L25.3391 28.5962L25.3359 28.5615L25.3273 28.4683L25.3244 28.4369L25.3234 28.4264L25.3229 28.4211L25.3214 28.4052L25.3175 28.3632L25.3174 28.3614L25.3167 28.3544C24.693 21.5985 24.0692 14.8425 23.4445 8.07987L23.4484 8.07859C25.3105 7.8612 27.1632 7.64533 29.0152 7.42953ZM27.8015 92.4869C31.2249 92.0886 34.6251 91.6928 38.0548 91.2933L38.0574 91.2971L38.1025 90.6464C38.1328 90.2116 38.1623 89.7878 38.1906 89.3645C38.2258 88.8341 38.2603 88.3034 38.2949 87.7726C38.3295 87.241 38.3641 86.7094 38.3993 86.1781C38.4405 85.5614 38.4824 84.9449 38.5242 84.3285C38.5788 83.5254 38.6333 82.7226 38.6862 81.9198C38.705 81.6342 38.7247 81.3485 38.7444 81.0629C38.8001 80.256 38.8558 79.449 38.8899 78.6412C38.9424 77.3836 38.9628 76.1259 38.9821 74.867C38.9859 74.6134 38.9577 74.3496 38.8847 74.1088C38.4378 72.6437 37.5963 71.518 36.1043 70.9788C35.8251 70.8789 35.5434 70.7841 35.2552 70.7163C34.8795 70.6285 34.5014 70.5512 34.1119 70.4716L34.1114 70.4715L34.1104 70.4713L34.11 70.4712L34.1098 70.4712C33.937 70.4359 33.762 70.4001 33.5839 70.3628C33.6187 70.3519 33.6502 70.3415 33.6796 70.3318C33.7369 70.3128 33.7863 70.2965 33.8362 70.2847C34.693 70.0798 35.528 69.8134 36.3284 69.4368C37.7436 68.7696 38.7362 67.7271 39.2049 66.2197C39.3535 65.742 39.502 65.2605 39.6019 64.7712C40.0681 62.4826 40.2333 60.171 40.0873 57.8401C40.031 56.9398 39.8888 56.0497 39.6006 55.1903C39.0128 53.437 37.8627 52.2076 36.1376 51.5275C35.4448 51.2547 34.716 51.151 33.9758 51.1228C32.202 51.0562 30.4334 51.1689 28.6699 51.3277C26.9986 51.4776 25.3298 51.6633 23.6623 51.849C22.0723 52.0251 20.4828 52.21 18.8936 52.3949L18.8929 52.395C18.2871 52.4654 17.6814 52.5359 17.0757 52.6059C16.863 52.6303 16.6509 52.6588 16.435 52.6879L16.4349 52.6879C16.3336 52.7016 16.2314 52.7153 16.128 52.7288C15.7719 58.0373 15.4159 63.3421 15.06 68.6446L15.0587 68.6645C14.501 76.9744 13.9437 85.2788 13.3873 93.5832C13.3777 93.7128 13.3767 93.8433 13.3757 93.9738V93.9739V93.974V93.9741V93.9741C13.3754 94.0175 13.3751 94.061 13.3745 94.1044C13.3745 94.108 13.3765 94.112 13.3791 94.1161L13.3828 94.1214C13.3848 94.1242 13.3869 94.1271 13.3885 94.13C13.3937 94.1377 13.4001 94.1467 13.4142 94.1646L18.3649 93.5873L18.4007 93.5832L18.5536 93.5653L18.8876 93.5264C20.7286 93.3117 22.5724 93.0967 24.4205 92.8813C24.8393 86.6392 25.2555 80.4265 25.673 74.1895L25.7802 74.1809H25.7803C26.4776 74.1245 27.1439 74.0706 27.8067 74.2497C28.2562 74.3714 28.5162 74.6608 28.6174 75.1155C28.7595 75.7609 28.7902 76.4167 28.7672 77.0698C28.7301 78.1452 28.662 79.2206 28.594 80.2949L28.5866 80.4112C28.5245 81.4008 28.4569 82.3904 28.3894 83.38C28.3593 83.8196 28.3293 84.2593 28.2997 84.6989C28.2542 85.3711 28.2098 86.0438 28.1654 86.7164L28.1653 86.7166L28.1653 86.7169L28.1651 86.7205L28.1647 86.7257C28.1419 87.0713 28.1191 87.4169 28.0961 87.7624C27.9975 89.2326 27.8989 90.7029 27.8015 92.1731C27.7983 92.2293 27.7992 92.2861 27.8003 92.3549C27.8009 92.3942 27.8015 92.4375 27.8015 92.4869ZM26.1073 67.7079C26.1391 67.7079 26.1662 67.7086 26.19 67.7092C26.2309 67.7103 26.2624 67.7111 26.2929 67.7079C26.955 67.6259 27.6005 67.4889 28.2216 67.2328C28.7595 67.0112 29.104 66.6295 29.2884 66.0814C29.4895 65.4859 29.5997 64.8737 29.6509 64.2513C29.7174 63.4369 29.7732 62.6217 29.8289 61.8069L29.8289 61.8068L29.8289 61.8066L29.8289 61.8065L29.829 61.8064L29.8292 61.8031L29.8294 61.7999L29.8296 61.7967C29.8455 61.5642 29.8614 61.3318 29.8776 61.0995C29.9109 60.6179 29.8776 60.139 29.7764 59.6651C29.6419 59.0363 29.2641 58.6649 28.6289 58.5432C28.1717 58.4561 27.7132 58.4561 27.2534 58.4843C27.1426 58.4909 27.0322 58.5007 26.9169 58.511C26.8537 58.5166 26.789 58.5224 26.7219 58.5278C26.5158 61.596 26.3122 64.6334 26.1073 67.7079ZM93.1583 55.3159L93.0747 56.7063C92.9709 58.4359 92.8651 60.1976 92.7561 61.9601C92.6703 63.3497 92.5832 64.738 92.4846 66.1263C92.4653 66.399 92.4462 66.6717 92.427 66.9443L92.4268 66.9472L92.4266 66.9501L92.4264 66.953L92.4264 66.9535C92.3174 68.5052 92.2084 70.0567 92.0735 71.6064C91.9506 73.0228 91.8046 74.438 91.6202 75.8481C91.0592 80.1358 88.7834 83.2646 85.0707 85.3931C83.448 86.3229 81.6922 86.8915 79.8595 87.2348C78.5391 87.4819 77.2059 87.6202 75.8611 87.5972C74.2948 87.569 72.7554 87.359 71.3044 86.7391C68.5996 85.5814 67.0576 83.5015 66.5645 80.6225C66.4269 79.8215 66.4351 79.0118 66.4433 78.2035L66.4454 77.9881C66.4634 75.7558 66.5914 73.5287 66.74 71.3028C66.7881 70.5872 66.8337 69.8716 66.8793 69.1561C66.9417 68.1762 67.0041 67.1965 67.073 66.2172C67.1031 65.789 67.1328 65.3608 67.1625 64.9327C67.2879 63.1249 67.4132 61.3175 67.5737 59.5127C67.7031 58.0566 67.8888 56.6043 68.1014 55.1571C68.4267 52.9504 69.4064 51.0358 70.8331 49.3427C72.4084 47.4741 74.4011 46.2037 76.6705 45.3456C78.0934 44.8077 79.5662 44.476 81.0749 44.2916C82.2774 44.1456 83.4813 44.0803 84.6903 44.1789C86.1183 44.2954 87.5091 44.5695 88.7988 45.2201C91.1143 46.3881 92.4731 48.2887 92.9841 50.8065C93.1768 51.7544 93.169 52.7178 93.1611 53.6798V53.68V53.6802L93.1597 53.8578C93.1594 53.8951 93.1592 53.9324 93.159 53.9697C93.1587 54.0172 93.1584 54.0646 93.1583 54.112C93.1574 54.3592 93.1577 54.6069 93.158 54.8742C93.1581 55.0151 93.1583 55.1614 93.1583 55.3159ZM77.3173 77.4797H77.3327C77.3327 77.6076 77.3314 77.7356 77.3302 77.8635C77.3272 78.1658 77.3243 78.4679 77.3378 78.7693C77.3532 79.0946 77.3852 79.4238 77.4556 79.7414C77.5414 80.1243 77.8052 80.351 78.1971 80.4278C79.1871 80.6212 80.0554 80.1153 80.3487 79.151C80.4525 78.8103 80.5216 78.4568 80.578 78.1047C80.7884 76.7922 80.8762 75.4682 80.9641 74.1443C80.9778 73.9374 80.9915 73.7305 81.0057 73.5236C81.0455 72.9397 81.0834 72.3559 81.1212 71.772C81.1516 71.3044 81.1819 70.8368 81.2132 70.3692C81.2599 69.67 81.3076 68.9707 81.3553 68.2714C81.403 67.5722 81.4508 66.8729 81.4975 66.1736C81.5397 65.543 81.5806 64.9124 81.6215 64.2818L81.623 64.2574L81.6231 64.2559L81.6232 64.2544C81.6499 63.8427 81.6766 63.431 81.7037 63.0193C81.7991 61.5894 81.8958 60.1596 81.9924 58.7298L81.9925 58.7289L81.9926 58.728L81.9926 58.7272L81.9944 58.7008C82.0169 58.3709 82.0403 58.0412 82.0637 57.7114L82.0638 57.7108L82.0638 57.7101L82.0639 57.7095C82.1166 56.9683 82.1692 56.2272 82.2108 55.4849C82.2531 54.7293 82.2787 53.9724 82.28 53.2155C82.28 52.839 82.2339 52.4586 82.1635 52.0885C82.0725 51.6044 81.769 51.338 81.2811 51.2868C80.6317 51.2202 80.0708 51.4123 79.6174 51.8951C79.3703 52.1577 79.2512 52.4817 79.1628 52.8211C78.9515 53.6369 78.8618 54.4706 78.7965 55.3069C78.7444 55.9805 78.7003 56.654 78.6562 57.3276L78.6557 57.3352C78.6338 57.6695 78.6119 58.0039 78.589 58.3383C78.5429 59.0247 78.4964 59.7111 78.4499 60.3976L78.4466 60.4454C78.3988 61.1518 78.351 61.8582 78.3034 62.5646C78.2682 63.0857 78.2339 63.6068 78.1996 64.128C78.1654 64.6481 78.1311 65.1682 78.096 65.6883C78.0492 66.3823 78.0018 67.0764 77.9545 67.7705C77.9071 68.4647 77.8597 69.1589 77.8129 69.8531C77.7709 70.481 77.7302 71.109 77.6895 71.7369L77.6888 71.7472C77.6616 72.1673 77.6344 72.5874 77.6067 73.0075L77.3147 77.4797H77.3173ZM61.0981 88.6082C63.1108 88.3739 65.1243 88.1394 67.1483 87.9035L67.1496 87.9048C67.1404 87.8598 67.1328 87.8203 67.1259 87.7843C67.1146 87.7251 67.1052 87.6755 67.0932 87.6269C67.0046 87.267 66.9161 86.9068 66.8276 86.5465L66.8271 86.5448L66.8249 86.5355C66.6752 85.9262 66.5255 85.3167 66.3747 84.7082L65.5339 81.3155C64.2942 76.3128 63.0544 71.3097 61.8103 66.3084C61.7527 66.0766 61.7668 65.8793 61.8526 65.659C62.8667 63.0755 63.8763 60.4912 64.886 57.9067L65.8317 55.4865C66.9523 52.619 68.0717 49.7515 69.191 46.884C69.2177 46.8161 69.2408 46.7467 69.2664 46.6697C69.2814 46.6246 69.2973 46.5769 69.3152 46.5254L68.3891 46.6309L68.3831 46.6316C67.6062 46.72 66.8493 46.8061 66.093 46.8942C65.3303 46.9826 64.5678 47.0715 63.8054 47.1605L63.7949 47.1617C62.2844 47.3379 60.774 47.514 59.263 47.6857C59.0338 47.7113 58.9108 47.7907 58.8289 48.0225C58.2644 49.6187 57.6901 51.2115 57.1157 52.8044C56.9721 53.2027 56.8285 53.6011 56.685 53.9996C55.5118 57.2615 54.3374 60.5234 53.163 63.7854C53.137 63.8557 53.1063 63.9242 53.0756 63.9926L53.0755 63.9929C53.0609 64.0253 53.0464 64.0577 53.0324 64.0902L52.9697 64.0697L53.0479 62.9002L53.0545 62.802C53.3771 57.9801 53.6999 53.1567 54.0237 48.303C52.0375 48.534 50.0624 48.7644 48.0935 48.9939C46.3845 49.1932 44.6802 49.3919 42.9776 49.5901C42.9302 50.0127 40.155 90.8043 40.2369 91.0387C42.777 90.743 45.3188 90.4466 47.8659 90.1496L51.2471 89.7554C51.2691 89.4391 51.2911 89.1253 51.313 88.8133C51.3599 88.1452 51.4062 87.4852 51.4507 86.8252C51.4939 86.1853 51.5359 85.5448 51.5778 84.9046L51.5782 84.8995L51.5785 84.8945C51.5999 84.5681 51.6213 84.2417 51.6429 83.9154C51.7056 82.946 51.7696 81.9752 51.8337 81.0057C51.8555 80.6755 51.8771 80.3452 51.8988 80.0148L51.8988 80.0147L51.8988 80.0145C51.9408 79.3749 51.9827 78.7352 52.0258 78.0959C52.0446 77.817 52.0629 77.538 52.0813 77.2589C52.1268 76.568 52.1723 75.8768 52.2243 75.1862C52.2505 74.8348 52.2723 74.4829 52.2941 74.131L52.2941 74.1304L52.2942 74.1297L52.2942 74.1295C52.3319 73.52 52.3696 72.9104 52.4305 72.3033H52.4907C53.392 77.027 54.2943 81.7516 55.2004 86.4968L55.2014 86.502L55.7232 89.2342C57.5186 89.025 59.308 88.8166 61.0981 88.6082ZM23.2965 20.4236L23.2916 20.4242C23.2972 20.3998 23.3025 20.3804 23.3069 20.3641C23.3145 20.3364 23.3196 20.3179 23.3196 20.2994C23.3321 19.9027 23.3458 19.506 23.3595 19.1092L23.3595 19.109C23.3949 18.0842 23.4303 17.0594 23.4451 16.0347C23.4617 14.836 23.3708 13.6423 23.13 12.4641C22.8931 11.3038 22.3744 10.2997 21.4523 9.54154C21.0604 9.2188 20.6339 8.92424 20.1895 8.67835C18.8217 7.91889 17.3284 7.59231 15.7788 7.51163C14.5801 7.44887 13.3852 7.51163 12.1967 7.68708C10.5151 7.93554 8.89504 8.38635 7.38637 9.18166C4.53041 10.6865 2.63625 12.9405 1.98053 16.1589C1.73848 17.3436 1.57968 18.5372 1.48875 19.7423C1.36964 21.3278 1.34531 22.9108 1.56943 24.4899C1.74489 25.7283 2.12525 26.8976 2.72718 27.9951C3.1306 28.7316 3.6416 29.3834 4.31269 29.8893C5.18741 30.5476 6.06725 31.2007 6.97142 31.8168C7.60744 32.2506 8.25202 32.6721 8.89664 33.0938L8.89694 33.0939C9.57102 33.5348 10.2452 33.9757 10.9096 34.4307C11.34 34.7252 11.7436 35.0599 12.1471 35.3946L12.1473 35.3947C12.2876 35.5111 12.4279 35.6274 12.5694 35.7421C12.8831 35.997 13.0612 36.3415 13.1649 36.7244C13.2238 36.9421 13.2738 37.1624 13.307 37.384C13.4928 38.6262 13.4735 39.8736 13.3544 41.1198C13.3006 41.6909 13.1726 42.2519 12.8908 42.7629C12.5642 43.3546 12.0686 43.6543 11.3873 43.6415C10.8673 43.6312 10.615 43.4532 10.5484 42.9396C10.4793 42.403 10.4229 41.8574 10.4408 41.3195C10.4871 39.8937 10.5507 38.4691 10.6143 37.0445C10.6388 36.496 10.6632 35.9475 10.6867 35.3989C10.6893 35.3401 10.6884 35.2813 10.6876 35.2221V35.222C10.6872 35.1923 10.6867 35.1625 10.6867 35.1325C10.1552 35.1696 1.23261 36.166 1.03922 36.2864L1.03607 36.3264C1.03171 36.3809 1.02719 36.4376 1.02513 36.4952C1.00952 36.885 0.99329 37.2748 0.977056 37.6646C0.941342 38.5222 0.905627 39.3798 0.876571 40.2374C0.822782 41.8664 0.876571 43.4916 1.14424 45.1027C1.27999 45.9224 1.47978 46.7254 1.86783 47.4695C2.49538 48.672 3.4559 49.5378 4.6239 50.191C6.10439 51.0196 7.71423 51.359 9.39195 51.4166C10.8212 51.4653 12.2338 51.3077 13.6259 50.9914C15.9735 50.4573 18.0777 49.4341 19.9001 47.8511C21.2346 46.6934 22.1592 45.2795 22.6113 43.5595C22.8944 42.4773 23.0788 41.3797 23.1889 40.2694C23.3285 38.8721 23.3938 37.4723 23.3708 36.0687C23.349 34.6958 23.244 33.3318 22.9571 31.9832C22.6088 30.3414 21.8724 28.9211 20.6083 27.803C19.9718 27.2408 19.3225 26.6914 18.6437 26.183C17.1671 25.0777 15.5713 24.1556 13.973 23.2386C13.4249 22.9236 12.9023 22.5599 12.3862 22.1936C11.6908 21.7005 11.3591 21.0012 11.2707 20.1624C11.1785 19.2928 11.1824 18.4245 11.2887 17.5587C11.3553 17.0183 11.4744 16.4893 11.7638 16.0155C12.0392 15.5647 12.4298 15.3047 12.9677 15.2842C13.4338 15.2663 13.6772 15.4315 13.7348 15.8887C13.7976 16.3843 13.8424 16.8876 13.8296 17.3858C13.8075 18.2613 13.7677 19.1367 13.7278 20.0122C13.71 20.4046 13.6921 20.7971 13.6759 21.1895C13.6734 21.2603 13.6741 21.331 13.675 21.4095V21.4095C13.6754 21.4518 13.6759 21.4963 13.6759 21.5443C16.1595 21.2553 18.6196 20.9686 21.0703 20.6831L21.0875 20.681L23.2916 20.4242L23.2914 20.4249L23.2965 20.4236ZM11.3254 53.2783C8.47193 53.6105 5.63432 53.9408 2.77528 54.2734L2.774 54.2747C2.5106 58.2111 2.2473 62.1464 1.98402 66.0814C1.32305 75.9603 0.662182 85.8378 0 95.7284L2.30064 95.4597C5.23657 95.1169 8.15065 94.7765 11.0704 94.4362C11.6613 85.6116 12.2506 76.8032 12.8404 67.9883C13.1748 62.9907 13.5093 57.991 13.8444 52.9851L11.3254 53.2783Z" fill="white"/>
</g>
<defs>
<clipPath id="clip0_34_1733">
<rect width="96" height="96" fill="white" transform="translate(0 0.5)"/>
</clipPath>
</defs>
</svg>
