<svg width="73" height="72" viewBox="0 0 73 72" fill="none" xmlns="http://www.w3.org/2000/svg">
<path d="M53.3106 32.8317C44.0946 27.3597 28.6866 26.7837 19.9026 29.5197C18.4626 29.9517 17.0226 29.0877 16.5906 27.7917C16.1586 26.3517 17.0226 24.9117 18.3186 24.4797C28.5426 21.4557 45.3906 22.0317 56.0466 28.3677C57.3426 29.0877 57.7746 30.8157 57.0546 32.1117C56.3346 33.1197 54.6066 33.5517 53.3106 32.8317ZM53.0225 40.8957C52.3026 41.9037 51.0066 42.3357 49.9986 41.6157C42.2226 36.8637 30.4146 35.4237 21.3426 38.3037C20.1906 38.5917 18.8946 38.0157 18.6066 36.8637C18.3186 35.7117 18.8946 34.4157 20.0466 34.1277C30.5586 30.9597 43.5186 32.5437 52.4466 38.0157C53.3106 38.4477 53.7425 39.8877 53.0225 40.8957ZM49.5666 48.8157C48.9906 49.6797 47.9826 49.9677 47.1186 49.3917C40.3506 45.2157 31.8546 44.3517 21.7746 46.6557C20.7666 46.9437 19.9026 46.2237 19.6146 45.3597C19.3266 44.3517 20.0466 43.4877 20.9106 43.1997C31.8546 40.7517 41.3586 41.7597 48.8466 46.3677C49.8546 46.7997 49.9986 47.9517 49.5666 48.8157ZM36.3186 7.19971C32.5365 7.19971 28.7914 7.94464 25.2973 9.39198C21.8031 10.8393 18.6282 12.9607 15.9539 15.635C10.5528 21.0361 7.51855 28.3615 7.51855 35.9997C7.51855 43.6379 10.5528 50.9633 15.9539 56.3644C18.6282 59.0387 21.8031 61.1601 25.2973 62.6074C28.7914 64.0548 32.5365 64.7997 36.3186 64.7997C43.9568 64.7997 51.2822 61.7654 56.6832 56.3644C62.0843 50.9633 65.1186 43.6379 65.1186 35.9997C65.1186 32.2176 64.3736 28.4726 62.9263 24.9784C61.479 21.4842 59.3576 18.3094 56.6832 15.635C54.0089 12.9607 50.834 10.8393 47.3398 9.39198C43.8457 7.94464 40.1006 7.19971 36.3186 7.19971Z" fill="#0B0B0B"/>
</svg>
