<svg width="73" height="72" viewBox="0 0 73 72" fill="none" xmlns="http://www.w3.org/2000/svg">
<path d="M30.5586 44.6398L45.5058 35.9998L30.5586 27.3598V44.6398ZM63.8513 22.0894C64.2257 23.443 64.485 25.2574 64.6578 27.5614C64.8594 29.8654 64.9458 31.8526 64.9458 33.5806L65.1186 35.9998C65.1186 42.307 64.6577 46.9438 63.8513 49.9102C63.1314 52.5022 61.461 54.1726 58.869 54.8926C57.5154 55.267 55.0386 55.5262 51.237 55.6991C47.493 55.9007 44.0658 55.987 40.8978 55.987L36.3186 56.1598C24.2514 56.1598 16.7346 55.699 13.7682 54.8926C11.1762 54.1726 9.50575 52.5022 8.78575 49.9102C8.41135 48.5566 8.15215 46.7422 7.97935 44.4382C7.77775 42.1342 7.69135 40.147 7.69135 38.419L7.51855 35.9998C7.51855 29.6926 7.97935 25.0558 8.78575 22.0894C9.50575 19.4974 11.1762 17.827 13.7682 17.107C15.1218 16.7326 17.5986 16.4734 21.4002 16.3006C25.1442 16.099 28.5714 16.0126 31.7394 16.0126L36.3186 15.8398C48.3858 15.8398 55.9026 16.3006 58.869 17.107C61.461 17.827 63.1314 19.4974 63.8513 22.0894Z" fill="#0B0B0B"/>
</svg>
